PathFileType	4	(X/Y/Z)	C249e_D251_DD_1_S001_6.trc
DataRate	CameraRate	NumFrames	NumMarkers	Units	OrigDataRate	OrigDataStartFrame	OrigNumFrames
50.0	50.0	4	54	mm	50.0	1	274
Frame#	Time		Q_WaistRFront		Q_WaistLFront		Q_WaistL		Q_WaistR		Q_WaistBack		Q_LThighFrontLow		Q_RThighFrontLow		Q_RKneeIn		Q_RKneeOut		Q_RShinFrontHigh		Q_LKneeIn		Q_LKneeOut		Q_LShinFrontHigh		Q_RForefoot5		Q_RForefoot2		Q_RHeelBack		Q_RAnkleOut		Q_LForefoot5		Q_LForefoot2		Q_LHeelBack		Q_LAnkleOut		Q_SpineThoracic2		Q_Chest		Q_SpineThoracic12		Q_HeadL		Q_HeadR		Q_HeadFront		Q_LShoulderTop		Q_LArm		Q_LElbowOut		Q_LElbowIn		Q_LWristOut		Q_LWristIn		Q_LHand2		Q_RShoulderTop		Q_RArm		Q_RElbowOut		Q_RElbowIn		Q_RWristOut		Q_RWristIn		Q_RHand2		RHipAngles		LHipAngles		RKneeAngles		LKneeAngles		RAnkleAngles		LAnkleAngles		RShoulderAngles		LShoulderAngles		RElbowAngles		LElbowAngles		RWristAngles		LWristAngles		Neck
			X1	Y1	Z1	X2	Y2	Z2	X3	Y3	Z3	X4	Y4	Z4	X5	Y5	Z5	X6	Y6	Z6	X7	Y7	Z7	X8	Y8	Z8	X9	Y9	Z9	X10	Y10	Z10	X11	Y11	Z11	X12	Y12	Z12	X13	Y13	Z13	X14	Y14	Z14	X15	Y15	Z15	X16	Y16	Z16	X17	Y17	Z17	X18	Y18	Z18	X19	Y19	Z19	X20	Y20	Z20	X21	Y21	Z21	X22	Y22	Z22	X23	Y23	Z23	X24	Y24	Z24	X25	Y25	Z25	X26	Y26	Z26	X27	Y27	Z27	X28	Y28	Z28	X29	Y29	Z29	X30	Y30	Z30	X31	Y31	Z31	X32	Y32	Z32	X33	Y33	Z33	X34	Y34	Z34	X35	Y35	Z35	X36	Y36	Z36	X37	Y37	Z37	X38	Y38	Z38	X39	Y39	Z39	X40	Y40	Z40	X41	Y41	Z41	X42	Y42	Z42	X43	Y43	Z43	X44	Y44	Z44	X45	Y45	Z45	X46	Y46	Z46	X47	Y47	Z47	X48	Y48	Z48	X49	Y49	Z49	X50	Y50	Z50	X51	Y51	Z51	X52	Y52	Z52	X53	Y53	Z53	X54	Y54	Z54

1	0.00000	132.86067	844.33179	132.21773	-123.52446	844.60248	139.54768	-121.63809	855.94476	205.11031	134.74704	855.67413	197.78035	6.55448	855.80945	201.44533	-121.85629	478.53696	197.94185	143.13571	480.01706	176.76567	100.49788	418.98953	192.70137	238.05101	444.79318	189.05440	206.54034	234.62260	200.69087	-77.61848	416.02881	217.21298	-214.56190	444.83875	213.15404	-187.17329	233.88512	206.19453	315.47949	45.61998	158.76881	265.69943	46.22095	154.12321	252.54738	56.97798	296.44611	305.24979	91.20163	278.58765	-292.68051	54.18611	141.61716	-243.05994	48.06932	142.23579	-244.58977	50.15348	285.54602	-289.93060	92.18664	264.44745	6.96978	1286.03821	325.95917	4.56261	741.28113	0.53537	6.96978	1286.03821	325.95917	-62.64734	1460.03564	211.05000	77.31338	1460.78857	214.27908	8.88060	1470.02307	143.34476	-115.76549	1339.15491	218.25505	-252.43019	1382.87659	162.34625	-288.60999	1482.55237	160.68590	-282.59540	1444.30725	68.48429	-286.80725	1668.21606	12.73719	-237.62885	1661.47534	18.74126	-185.00043	1733.26282	12.05727	132.17128	1338.51294	210.56500	259.70624	1385.88416	142.17619	294.81287	1485.94934	140.96761	276.60193	1452.48083	48.51105	275.78247	1678.92908	4.00137	227.72345	1672.04761	15.95849	182.60313	1753.68176	17.70521	-8.97843	8.73662	-0.69796	-6.19982	6.96847	-2.15260	-8.10062	1.77755	1.30320	0.21269	5.03221	-0.17926	-3.27972	6.07703	-11.84990	-2.45682	0.92336	-4.86376	-32.77606	79.12318	-53.32522	29.31879	-67.34474	-48.43931	-42.87177	-67.34474	-10.91617	-42.97295	-0.00000	-10.91617	6.11698	19.91919	-10.91617	9.91255	26.46196	-0.00000	-10.67200	-0.40741	-0.68944
2	0.02000	133.66064	844.66949	132.25658	-122.71070	843.86957	140.02029	-120.76353	855.54437	205.52275	135.60782	856.34430	197.75905	7.42215	855.94434	201.64090	-121.39429	478.35693	198.47939	143.28885	480.38303	176.83824	100.47506	419.42557	192.75226	238.08943	444.88235	188.97931	206.05975	234.79224	200.65109	-77.34135	415.78467	217.80824	-214.22725	444.82965	213.49152	-187.18365	233.83327	206.47864	314.80042	45.03876	158.99457	265.01837	45.48837	154.35281	251.86044	57.17503	296.60187	304.47769	91.40413	278.50433	-292.64975	53.95768	141.60739	-243.00879	48.02207	142.34607	-244.88652	50.15225	285.65149	-290.33005	92.01220	264.42987	6.47003	1286.10767	324.80231	5.49389	740.48846	0.81844	6.47003	1286.10767	324.80231	-62.12952	1460.60303	211.20612	77.84641	1460.00195	213.73097	9.15122	1470.51477	143.22955	-115.77529	1339.00269	217.84993	-252.62845	1382.78308	162.24001	-288.81021	1482.45825	160.59848	-282.66220	1444.27881	68.37850	-287.19870	1668.21387	12.76290	-238.01395	1661.55029	18.80065	-186.26233	1734.42932	13.45621	132.02029	1338.11804	210.23683	259.82458	1385.11609	142.05077	295.23486	1485.07410	140.82669	276.81805	1451.68372	48.38266	274.50055	1678.21106	4.33021	226.53407	1671.02844	16.48046	181.48029	1752.72717	18.90812	-9.33762	8.30253	-0.68894	-6.50199	7.36360	-2.32328	-8.16414	1.82333	1.32997	0.21764	4.98598	-0.17684	-2.91363	6.07505	-11.57491	-2.41685	0.88656	-5.17095	-32.72381	79.30039	-53.10124	29.21829	-67.48551	-48.63444	-43.43319	-67.48551	-11.10773	-42.89836	-0.00000	-11.10773	6.60285	19.73248	-11.10773	10.62859	25.99985	-0.00000	-10.05903	-0.33111	-0.83194
3	0.04000	134.71071	838.12854	131.84883	-121.70789	837.66052	137.88576	-120.18848	849.61047	203.34990	136.23013	850.07849	197.31299	8.02082	849.84448	200.33144	-117.50809	471.99271	194.29942	139.57715	473.56235	176.36087	96.14362	410.85599	192.86380	233.21301	438.98489	188.30933	205.00677	228.02422	188.24165	-72.89626	409.74924	213.24695	-210.07280	437.33200	208.57857	-180.68980	226.70830	199.95889	317.69165	44.83105	133.95401	267.88379	42.49101	130.25241	257.09534	46.10660	273.13361	307.17523	84.34512	255.88403	-288.99634	46.66498	135.29321	-239.29501	41.34037	134.09805	-235.81363	41.67387	277.38892	-282.52139	83.22305	258.42108	6.25255	1288.13184	322.59259	7.56609	741.26318	0.72345	6.25255	1288.13184	322.59259	-62.60335	1464.20325	208.74020	77.36376	1464.66992	211.73911	8.83858	1473.21252	140.80728	-116.73120	1341.18958	217.67845	-253.45250	1382.67993	160.92491	-291.38144	1481.70117	159.14177	-282.83035	1444.16504	66.84914	-287.32498	1668.43335	12.58899	-238.25998	1662.00342	19.75006	-184.17551	1731.80713	14.01718	133.60068	1340.68445	212.25468	260.71884	1385.48840	141.58371	297.81531	1484.81433	139.29977	275.75891	1451.91125	47.47982	274.61493	1678.57568	4.09122	227.02264	1671.93054	17.90480	181.53342	1752.55054	21.19897	-9.72574	7.51531	-0.44784	-7.20362	6.63868	-2.40345	-4.79222	3.95638	0.40369	0.21939	4.99166	0.01314	-2.74671	6.00932	-9.12171	-2.17914	3.36609	-5.27586	-33.48810	81.32944	-52.67717	29.11905	-68.33719	-47.96596	-43.62471	-68.33719	-9.21887	-43.63476	-0.00000	-9.21887	6.64963	20.64263	-9.21887	9.48209	27.91800	-0.00000	-11.03132	-0.09957	-0.58034
4	0.06000	134.81854	833.56476	131.07420	-121.59122	833.26794	137.48750	-119.96964	845.54510	202.88861	136.44012	845.84192	196.47531	8.23525	845.69348	199.68196	-116.67163	467.80118	194.98663	137.04308	468.83362	178.75175	93.18304	405.41992	195.85718	230.00015	434.74298	191.24832	203.57336	223.55946	189.47324	-72.05824	405.60938	214.98863	-209.17207	433.09039	208.31055	-179.55914	222.45010	200.97975	318.10434	45.42228	132.59836	268.39340	41.29532	129.16446	258.53223	41.09770	272.15826	307.01312	81.59669	255.51007	-289.83527	44.52749	136.33617	-240.07179	40.12157	134.29024	-234.45230	37.09980	277.48172	-282.15909	78.24854	260.20245	6.16248	1291.27551	321.34766	7.94076	743.59314	0.86731	6.16248	1291.27551	321.34766	-62.23299	1469.46252	208.23271	77.75008	1469.65955	210.39900	8.83100	1474.90857	139.52866	-119.21665	1342.81946	218.82442	-253.96176	1382.54260	160.05562	-292.94559	1481.14648	157.93027	-281.80002	1444.24902	65.65704	-287.40021	1668.77405	12.57472	-238.45354	1662.82019	20.86773	-183.54594	1731.27100	13.90357	136.60808	1341.57959	213.43402	260.33105	1385.26587	140.66443	297.98584	1484.37280	138.03586	273.11328	1452.28369	46.64859	272.88956	1679.23242	4.75783	225.63435	1672.93042	19.83200	178.00037	1750.65344	23.56240	-9.53952	6.99549	-0.04891	-7.31165	6.49922	-2.70832	-3.79669	5.03818	0.12893	0.21810	5.11032	-0.52699	-3.79433	5.96825	-7.40976	-3.41016	5.36122	-6.20171	-33.91910	83.25689	-52.96243	29.44628	-69.65436	-47.78071	-43.23164	-69.65436	-6.46628	-43.64806	-0.00000	-6.46628	6.90463	22.60765	-6.46628	7.86324	28.67286	-0.00000	-13.74694	-0.01953	0.18638
